<svg xmlns="http://www.w3.org/2000/svg" viewBox="0 0 190 100">
  <!-- Nền trắng -->
  <rect width="190" height="100" fill="#ffffff"/>

  <!-- 13 sọc -->
  <rect y="0" width="190" height="7.692" fill="#B22234"/>
  <rect y="15.384" width="190" height="7.692" fill="#B22234"/>
  <rect y="30.768" width="190" height="7.692" fill="#B22234"/>
  <rect y="46.152" width="190" height="7.692" fill="#B22234"/>
  <rect y="61.536" width="190" height="7.692" fill="#B22234"/>
  <rect y="76.920" width="190" height="7.692" fill="#B22234"/>
  <rect y="92.304" width="190" height="7.692" fill="#B22234"/>

  <!-- Canton xanh -->
  <rect x="0" y="0" width="76" height="53.846" fill="#3C3B6E"/>

  <!-- Định nghĩa 1 ngôi sao -->
  <defs>
    <polygon id="star" fill="#ffffff"
      points="0,-2.5 0.588,-0.809 2.378,-0.773 0.951,0.309 1.469,2.023 0,1 -1.469,2.023 -0.951,0.309 -2.378,-0.773 -0.588,-0.809"/>
  </defs>

  <!-- 9 hàng sao: 6-5-6-5-6-5-6-5-6 -->
  <!-- Row 1 -->
  <use href="#star" x="6.333"  y="5.983"/>
  <use href="#star" x="19.000" y="5.983"/>
  <use href="#star" x="31.667" y="5.983"/>
  <use href="#star" x="44.333" y="5.983"/>
  <use href="#star" x="57.000" y="5.983"/>
  <use href="#star" x="69.667" y="5.983"/>

  <!-- Row 2 -->
  <use href="#star" x="12.667" y="11.966"/>
  <use href="#star" x="25.333" y="11.966"/>
  <use href="#star" x="38.000" y="11.966"/>
  <use href="#star" x="50.667" y="11.966"/>
  <use href="#star" x="63.333" y="11.966"/>

  <!-- Row 3 -->
  <use href="#star" x="6.333"  y="17.949"/>
  <use href="#star" x="19.000" y="17.949"/>
  <use href="#star" x="31.667" y="17.949"/>
  <use href="#star" x="44.333" y="17.949"/>
  <use href="#star" x="57.000" y="17.949"/>
  <use href="#star" x="69.667" y="17.949"/>

  <!-- Row 4 -->
  <use href="#star" x="12.667" y="23.932"/>
  <use href="#star" x="25.333" y="23.932"/>
  <use href="#star" x="38.000" y="23.932"/>
  <use href="#star" x="50.667" y="23.932"/>
  <use href="#star" x="63.333" y="23.932"/>

  <!-- Row 5 -->
  <use href="#star" x="6.333"  y="29.915"/>
  <use href="#star" x="19.000" y="29.915"/>
  <use href="#star" x="31.667" y="29.915"/>
  <use href="#star" x="44.333" y="29.915"/>
  <use href="#star" x="57.000" y="29.915"/>
  <use href="#star" x="69.667" y="29.915"/>

  <!-- Row 6 -->
  <use href="#star" x="12.667" y="35.898"/>
  <use href="#star" x="25.333" y="35.898"/>
  <use href="#star" x="38.000" y="35.898"/>
  <use href="#star" x="50.667" y="35.898"/>
  <use href="#star" x="63.333" y="35.898"/>

  <!-- Row 7 -->
  <use href="#star" x="6.333"  y="41.881"/>
  <use href="#star" x="19.000" y="41.881"/>
  <use href="#star" x="31.667" y="41.881"/>
  <use href="#star" x="44.333" y="41.881"/>
  <use href="#star" x="57.000" y="41.881"/>
  <use href="#star" x="69.667" y="41.881"/>

  <!-- Row 8 -->
  <use href="#star" x="12.667" y="47.864"/>
  <use href="#star" x="25.333" y="47.864"/>
  <use href="#star" x="38.000" y="47.864"/>
  <use href="#star" x="50.667" y="47.864"/>
  <use href="#star" x="63.333" y="47.864"/>

  <!-- Row 9 -->
  <use href="#star" x="6.333"  y="53.000"/>
  <use href="#star" x="19.000" y="53.000"/>
  <use href="#star" x="31.667" y="53.000"/>
  <use href="#star" x="44.333" y="53.000"/>
  <use href="#star" x="57.000" y="53.000"/>
  <use href="#star" x="69.667" y="53.000"/>
</svg>